<?xml version="1.0" encoding="UTF-8" standalone="no"?>
<svg
   xmlns:dc="http://purl.org/dc/elements/1.1/"
   xmlns:cc="http://creativecommons.org/ns#"
   xmlns:rdf="http://www.w3.org/1999/02/22-rdf-syntax-ns#"
   xmlns:svg="http://www.w3.org/2000/svg"
   xmlns="http://www.w3.org/2000/svg"
   xmlns:sodipodi="http://sodipodi.sourceforge.net/DTD/sodipodi-0.dtd"
   xmlns:inkscape="http://www.inkscape.org/namespaces/inkscape"
   version="1.1"
   id="Badges"
   x="0px"
   y="0px"
   viewBox="326.8 -26.5 128 40"
   enable-background="new 326.8 -26.5 128 128"
   xml:space="preserve"
   sodipodi:docname="macos.svg"
   width="128"
   height="40"
   inkscape:version="1.0 (4035a4fb49, 2020-05-01)"><metadata
   id="metadata50"><rdf:RDF><cc:Work
       rdf:about=""><dc:format>image/svg+xml</dc:format><dc:type
         rdf:resource="http://purl.org/dc/dcmitype/StillImage" /><dc:title /></cc:Work></rdf:RDF></metadata><defs
   id="defs48" /><sodipodi:namedview
   pagecolor="#ffffff"
   bordercolor="#666666"
   borderopacity="1"
   objecttolerance="10"
   gridtolerance="10"
   guidetolerance="10"
   inkscape:pageopacity="0"
   inkscape:pageshadow="2"
   inkscape:window-width="1261"
   inkscape:window-height="1198"
   id="namedview46"
   showgrid="false"
   fit-margin-top="0"
   fit-margin-left="0"
   fit-margin-right="0"
   fit-margin-bottom="0"
   inkscape:zoom="2.8284271"
   inkscape:cx="60.807617"
   inkscape:cy="24.709137"
   inkscape:window-x="210"
   inkscape:window-y="115"
   inkscape:window-maximized="0"
   inkscape:current-layer="g41"
   inkscape:document-rotation="0" />
<g
   id="g43"
   transform="translate(0,-44)">
	<path
   d="m 450.8,57.5 h -120 c -2.2,0 -4,-1.8 -4,-4 v -32 c 0,-2.2 1.8,-4 4,-4 h 120 c 2.2,0 4,1.8 4,4 v 32 c 0,2.2 -1.8,4 -4,4 z"
   id="path2"
   inkscape:connector-curvature="0" />
	<path
   inkscape:connector-curvature="0"
   id="path4-4"
   d="m 355.32539,43.755029 c -0.32514,0.751145 -0.71001,1.442577 -1.15592,2.078275 -0.60782,0.866609 -1.10549,1.466473 -1.48903,1.799575 -0.59455,0.546778 -1.23157,0.826794 -1.91371,0.842713 -0.48971,0 -1.08028,-0.139342 -1.76772,-0.422023 -0.68971,-0.281348 -1.32354,-0.42069 -1.90309,-0.42069 -0.60782,0 -1.25971,0.139342 -1.95698,0.42069 -0.69833,0.282681 -1.26089,0.429999 -1.69101,0.444586 -0.65414,0.02788 -1.30615,-0.260117 -1.95698,-0.865276 -0.41538,-0.36231 -0.93495,-0.983405 -1.55737,-1.863285 -0.66781,-0.939593 -1.21684,-2.029169 -1.64696,-3.271342 -0.46064,-1.341717 -0.69156,-2.640972 -0.69156,-3.898818 0,-1.440859 0.31134,-2.683575 0.93496,-3.724957 0.4901,-0.836489 1.14212,-1.496329 1.95816,-1.980729 0.81605,-0.484401 1.69779,-0.731247 2.64734,-0.747043 0.51957,0 1.20091,0.160713 2.04762,0.476564 0.84431,0.31692 1.38644,0.477633 1.62413,0.477633 0.1777,0 0.77995,-0.187922 1.8009,-0.562557 0.96548,-0.347443 1.78033,-0.491308 2.44787,-0.434645 1.80887,0.145986 3.16784,0.859052 4.07161,2.143704 -1.61776,0.980214 -2.41801,2.35312 -2.40209,4.114335 0.0146,1.371855 0.51227,2.513448 1.49036,3.419871 0.44326,0.42069 0.93827,0.745833 1.48902,0.97676 -0.11943,0.346373 -0.24551,0.678143 -0.37955,0.996659 z m -4.14858,-16.324908 c 0,1.075253 -0.39283,2.079205 -1.17583,3.008455 -0.94491,1.104688 -2.08782,1.743034 -3.32722,1.642297 -0.0158,-0.12898 -0.0249,-0.264746 -0.0249,-0.407418 0,-1.032231 0.44936,-2.136937 1.24736,-3.040169 0.3984,-0.457332 0.9051,-0.837577 1.51955,-1.140927 0.61313,-0.29881 1.19308,-0.464064 1.73853,-0.49236 0.0159,0.143742 0.0226,0.287502 0.0226,0.430105 z"
   style="fill:#ffffff;stroke-width:0.0181099" />
	<g
   id="g41">
		<path
   d="m 372.8,32.7 c -0.4,0.2 -1.3,0.4 -2.3,0.4 -1.1,0 -2.1,-0.3 -2.8,-1 -0.6,-0.6 -1,-1.6 -1,-2.8 0,-2.2 1.5,-3.9 4,-3.9 0.9,0 1.5,0.2 1.9,0.3 l -0.2,0.8 c -0.4,-0.2 -0.9,-0.3 -1.6,-0.3 -1.8,0 -3,1.1 -3,3 0,1.9 1.1,3 2.9,3 0.6,0 1.1,-0.1 1.3,-0.2 v -2.2 h -1.5 V 29 h 2.4 v 3.7 z"
   id="path9"
   inkscape:connector-curvature="0"
   style="fill:#ffffff" />
		<path
   d="m 374.8,30.5 c 0,1.3 0.9,1.9 1.8,1.9 0.7,0 1.1,-0.1 1.5,-0.3 l 0.2,0.7 c -0.3,0.2 -0.9,0.3 -1.8,0.3 -1.6,0 -2.6,-1.1 -2.6,-2.7 0,-1.6 0.9,-2.9 2.5,-2.9 1.7,0 2.2,1.5 2.2,2.5 0,0.2 0,0.4 0,0.5 z m 2.9,-0.7 c 0,-0.6 -0.3,-1.6 -1.3,-1.6 -1,0 -1.4,0.9 -1.5,1.6 z"
   id="path11"
   inkscape:connector-curvature="0"
   style="fill:#ffffff" />
		<path
   d="m 381,26.1 v 1.5 h 1.4 v 0.7 H 381 v 2.9 c 0,0.7 0.2,1 0.7,1 0.3,0 0.4,0 0.6,-0.1 v 0.7 c -0.2,0.1 -0.5,0.1 -0.9,0.1 -0.5,0 -0.8,-0.1 -1,-0.4 -0.3,-0.3 -0.4,-0.8 -0.4,-1.4 v -2.9 h -0.8 v -0.7 h 0.8 v -1.3 z"
   id="path13"
   inkscape:connector-curvature="0"
   style="fill:#ffffff" />
		<path
   d="m 386.9,26.1 c 0,0.3 -0.2,0.6 -0.6,0.6 -0.3,0 -0.6,-0.3 -0.6,-0.6 0,-0.3 0.3,-0.6 0.6,-0.6 0.3,0 0.6,0.3 0.6,0.6 z m -1.1,6.9 v -5.4 h 1 V 33 Z"
   id="path15"
   inkscape:connector-curvature="0"
   style="fill:#ffffff" />
		<path
   d="m 389.5,26.1 v 1.5 h 1.4 v 0.7 h -1.4 v 2.9 c 0,0.7 0.2,1 0.7,1 0.3,0 0.4,0 0.6,-0.1 v 0.7 c -0.2,0.1 -0.5,0.1 -0.9,0.1 -0.5,0 -0.8,-0.1 -1,-0.4 -0.3,-0.3 -0.4,-0.8 -0.4,-1.4 v -2.9 h -0.8 v -0.7 h 0.8 v -1.3 z"
   id="path17"
   inkscape:connector-curvature="0"
   style="fill:#ffffff" />
		<path
   d="m 399.1,30.3 c 0,2 -1.4,2.9 -2.7,2.9 -1.4,0 -2.6,-1.1 -2.6,-2.8 0,-1.8 1.2,-2.9 2.6,-2.9 1.7,0 2.7,1.1 2.7,2.8 z m -4.2,0 c 0,1.2 0.7,2.1 1.6,2.1 0.9,0 1.6,-0.9 1.6,-2.1 0,-0.9 -0.5,-2.1 -1.6,-2.1 -1.1,0 -1.6,1.1 -1.6,2.1 z"
   id="path19"
   inkscape:connector-curvature="0"
   style="fill:#ffffff" />
		<path
   d="m 400.3,29.1 c 0,-0.6 0,-1 0,-1.5 h 0.9 l 0.1,0.9 v 0 c 0.3,-0.5 0.9,-1 1.8,-1 0.7,0 1.9,0.4 1.9,2.3 V 33 h -1 v -3.1 c 0,-0.9 -0.3,-1.6 -1.2,-1.6 -0.6,0 -1.1,0.5 -1.3,1 0,0.1 -0.1,0.3 -0.1,0.5 V 33 h -1 v -3.9 z"
   id="path21"
   inkscape:connector-curvature="0"
   style="fill:#ffffff" />
		
		
		
		
		
		
		
		
		
	<path
   d="m 379.74636,49.753361 h -1.50474 v -5.090485 q 0,-0.576281 -0.056,-1.112543 -0.048,-0.536261 -0.21611,-0.856418 -0.18409,-0.344168 -0.52826,-0.520254 -0.34416,-0.176086 -0.99248,-0.176086 -0.63231,0 -1.26462,0.320157 -0.63231,0.312152 -1.26462,0.80039 0.024,0.18409 0.04,0.432211 0.016,0.240118 0.016,0.480235 v 5.722793 h -1.50473 v -5.090485 q 0,-0.592289 -0.056,-1.120547 -0.048,-0.536261 -0.2161,-0.856418 -0.18409,-0.344168 -0.52826,-0.51225 -0.34417,-0.176086 -0.99249,-0.176086 -0.6163,0 -1.2406,0.304149 -0.6163,0.304148 -1.2326,0.776379 v 6.675258 h -1.50474 v -8.940364 h 1.50474 v 0.992485 q 0.70434,-0.584285 1.40068,-0.912446 0.70434,-0.32816 1.49673,-0.32816 0.91245,0 1.54475,0.384188 0.64032,0.384187 0.95247,1.064519 0.91244,-0.768375 1.66481,-1.104539 0.75237,-0.344168 1.60879,-0.344168 1.47272,0 2.16906,0.896438 0.70434,0.888433 0.70434,2.489215 z"
   style="font-style:normal;font-variant:normal;font-weight:normal;font-stretch:normal;font-size:16.392px;line-height:1.25;font-family:Verdana;-inkscape-font-specification:Verdana;fill:#ffffff;fill-opacity:1;stroke:none;stroke-width:0.409802"
   id="path842" /><path
   d="m 389.59116,49.753361 h -1.49673 v -0.952465 q -0.20009,0.136066 -0.54426,0.384187 -0.33617,0.240118 -0.65632,0.384188 -0.37619,0.18409 -0.86442,0.304148 -0.48824,0.128063 -1.14456,0.128063 -1.20859,0 -2.049,-0.800391 -0.84041,-0.80039 -0.84041,-2.040996 0,-1.016496 0.43221,-1.640801 0.44021,-0.632308 1.24861,-0.992484 0.8164,-0.360176 1.96095,-0.488238 1.14456,-0.128063 2.4572,-0.192094 v -0.232113 q 0,-0.51225 -0.18409,-0.848414 -0.17608,-0.336165 -0.51225,-0.528258 -0.32015,-0.18409 -0.76837,-0.248121 -0.44822,-0.06403 -0.93646,-0.06403 -0.59229,0 -1.32064,0.160078 -0.72836,0.152075 -1.50474,0.448219 h -0.08 v -1.528746 q 0.44022,-0.120058 1.27262,-0.264129 0.83241,-0.14407 1.64081,-0.14407 0.94446,0 1.6408,0.160078 0.70434,0.152074 1.21659,0.528258 0.50425,0.36818 0.76838,0.952465 0.26412,0.584285 0.26412,1.448707 z m -1.49673,-2.201074 v -2.489215 q -0.68833,0.04002 -1.62479,0.120058 -0.92845,0.08004 -1.47272,0.232114 -0.64831,0.184089 -1.04851,0.576281 -0.4002,0.384187 -0.4002,1.064519 0,0.768375 0.46423,1.160567 0.46423,0.384187 1.41669,0.384187 0.79239,0 1.44871,-0.304148 0.65632,-0.312153 1.21659,-0.744363 z"
   style="font-style:normal;font-variant:normal;font-weight:normal;font-stretch:normal;font-size:16.392px;line-height:1.25;font-family:Verdana;-inkscape-font-specification:Verdana;fill:#ffffff;fill-opacity:1;stroke:none;stroke-width:0.409802"
   id="path844" /><path
   d="m 399.11581,49.193087 q -0.75237,0.360176 -1.4327,0.560274 -0.67233,0.200097 -1.4327,0.200097 -0.96847,0 -1.77686,-0.280136 -0.8084,-0.288141 -1.38468,-0.864422 -0.58428,-0.576281 -0.90444,-1.456711 -0.32016,-0.88043 -0.32016,-2.057004 0,-2.19307 1.20059,-3.44168 1.20859,-1.248609 3.18555,-1.248609 0.76838,0 1.50474,0.216105 0.74436,0.216106 1.36066,0.528258 v 1.672817 h -0.08 q -0.68833,-0.536262 -1.42469,-0.824403 -0.72836,-0.28814 -1.4247,-0.28814 -1.28062,0 -2.02499,0.864421 -0.73636,0.856418 -0.73636,2.521231 0,1.616789 0.72036,2.489215 0.72835,0.864422 2.04099,0.864422 0.45623,0 0.92846,-0.120059 0.47223,-0.120059 0.84841,-0.312152 0.32816,-0.168082 0.6163,-0.352172 0.28814,-0.192094 0.45622,-0.32816 h 0.08 z"
   style="font-style:normal;font-variant:normal;font-weight:normal;font-stretch:normal;font-size:16.392px;line-height:1.25;font-family:Verdana;-inkscape-font-specification:Verdana;fill:#ffffff;fill-opacity:1;stroke:none;stroke-width:0.409802"
   id="path846" /><path
   d="m 410.05715,39.204212 q 0.72836,0.800391 1.11255,1.960957 0.39219,1.160567 0.39219,2.633285 0,1.472719 -0.4002,2.64129 -0.39219,1.160566 -1.10454,1.936945 -0.73636,0.808394 -1.74485,1.216594 -1.00049,0.408199 -2.28911,0.408199 -1.25662,0 -2.28912,-0.416203 -1.0245,-0.416203 -1.74485,-1.20859 -0.72036,-0.792387 -1.11255,-1.944949 -0.38418,-1.152563 -0.38418,-2.633286 0,-1.456711 0.38418,-2.609273 0.38419,-1.160566 1.12055,-1.984969 0.70434,-0.784383 1.74485,-1.200586 1.04851,-0.416203 2.28112,-0.416203 1.28062,0 2.29712,0.424207 1.0245,0.416203 1.73684,1.192582 z m -0.14407,4.594242 q 0,-2.321132 -1.0405,-3.577746 -1.04051,-1.264617 -2.84139,-1.264617 -1.81689,0 -2.8574,1.264617 -1.0325,1.256614 -1.0325,3.577746 0,2.345145 1.05652,3.593754 1.05651,1.240606 2.83338,1.240606 1.77687,0 2.82538,-1.240606 1.05651,-1.248609 1.05651,-3.593754 z"
   style="font-style:normal;font-variant:normal;font-weight:normal;font-stretch:normal;font-size:16.392px;line-height:1.25;font-family:Verdana;-inkscape-font-specification:Verdana;fill:#ffffff;fill-opacity:1;stroke:none;stroke-width:0.409802"
   id="path848" /><path
   d="m 422.73534,46.351701 q 0,0.696339 -0.32816,1.376671 -0.32016,0.680332 -0.90444,1.152563 -0.64032,0.51225 -1.49673,0.800391 -0.84842,0.28814 -2.049,0.28814 -1.28863,0 -2.32114,-0.240117 -1.0245,-0.240117 -2.08902,-0.712348 v -1.984968 h 0.11206 q 0.90444,0.752367 2.08902,1.160566 1.18458,0.408199 2.22508,0.408199 1.47272,0 2.28912,-0.552269 0.8244,-0.55227 0.8244,-1.472719 0,-0.792387 -0.39219,-1.16857 -0.38418,-0.376184 -1.17657,-0.584286 -0.60029,-0.160078 -1.30464,-0.264128 -0.69634,-0.104051 -1.48072,-0.264129 -1.58477,-0.336164 -2.35315,-1.144559 -0.76037,-0.816398 -0.76037,-2.121035 0,-1.496731 1.26462,-2.449196 1.26461,-0.960468 3.20956,-0.960468 1.25662,0 2.30513,0.240117 1.04851,0.240117 1.8569,0.592289 v 1.872914 h -0.11205 q -0.68033,-0.576281 -1.79288,-0.952465 -1.10453,-0.384187 -2.2651,-0.384187 -1.27262,0 -2.049,0.528258 -0.76838,0.528257 -0.76838,1.360664 0,0.744363 0.38419,1.16857 0.38419,0.424207 1.35266,0.648316 0.51225,0.112055 1.45671,0.272133 0.94446,0.160078 1.60078,0.32816 1.32865,0.352172 2.00098,1.06452 0.67233,0.712348 0.67233,1.992973 z"
   style="font-style:normal;font-variant:normal;font-weight:normal;font-stretch:normal;font-size:16.392px;line-height:1.25;font-family:Verdana;-inkscape-font-specification:Verdana;fill:#ffffff;fill-opacity:1;stroke:none;stroke-width:0.409802"
   id="path850" /></g>
</g>
</svg>
