<?xml version="1.0" encoding="UTF-8" standalone="no"?>
<!-- Generator: Adobe Illustrator 18.0.0, SVG Export Plug-In . SVG Version: 6.00 Build 0)  -->

<svg
   xmlns:dc="http://purl.org/dc/elements/1.1/"
   xmlns:cc="http://creativecommons.org/ns#"
   xmlns:rdf="http://www.w3.org/1999/02/22-rdf-syntax-ns#"
   xmlns:svg="http://www.w3.org/2000/svg"
   xmlns="http://www.w3.org/2000/svg"
   xmlns:sodipodi="http://sodipodi.sourceforge.net/DTD/sodipodi-0.dtd"
   xmlns:inkscape="http://www.inkscape.org/namespaces/inkscape"
   version="1.1"
   id="Badges"
   x="0px"
   y="0px"
   viewBox="326.8 -26.5 128 40"
   enable-background="new 326.8 -26.5 128 128"
   xml:space="preserve"
   sodipodi:docname="windows-badge.svg"
   width="128"
   height="40"
   inkscape:version="0.92.3 (2405546, 2018-03-11)"><metadata
   id="metadata50"><rdf:RDF><cc:Work
       rdf:about=""><dc:format>image/svg+xml</dc:format><dc:type
         rdf:resource="http://purl.org/dc/dcmitype/StillImage" /><dc:title></dc:title></cc:Work></rdf:RDF></metadata><defs
   id="defs48" /><sodipodi:namedview
   pagecolor="#ffffff"
   bordercolor="#666666"
   borderopacity="1"
   objecttolerance="10"
   gridtolerance="10"
   guidetolerance="10"
   inkscape:pageopacity="0"
   inkscape:pageshadow="2"
   inkscape:window-width="1920"
   inkscape:window-height="1017"
   id="namedview46"
   showgrid="false"
   fit-margin-top="0"
   fit-margin-left="0"
   fit-margin-right="0"
   fit-margin-bottom="0"
   inkscape:zoom="1.84375"
   inkscape:cx="64"
   inkscape:cy="20"
   inkscape:window-x="-8"
   inkscape:window-y="-8"
   inkscape:window-maximized="1"
   inkscape:current-layer="g41" />
<g
   id="g43"
   transform="translate(0,-44)">
	<path
   d="m 450.8,57.5 h -120 c -2.2,0 -4,-1.8 -4,-4 v -32 c 0,-2.2 1.8,-4 4,-4 h 120 c 2.2,0 4,1.8 4,4 v 32 c 0,2.2 -1.8,4 -4,4 z"
   id="path2"
   inkscape:connector-curvature="0" />
	<g
   id="g7">
		<g
   id="bag_3_">
			<path
   d="m 345,46.8 -9,-1.3 v -7.6 h 9 z m 0,-9.6 h -9 V 30 l 9,-1.3 z m 12.3,11.3 -11.6,-1.7 v -8.9 h 11.6 z m 0,-11.3 H 345.7 V 28.7 L 357.3,27 Z"
   id="path4"
   inkscape:connector-curvature="0"
   style="fill:#ffffff" />
		</g>
	</g>
	<g
   id="g41">
		<path
   d="m 372.8,32.7 c -0.4,0.2 -1.3,0.4 -2.3,0.4 -1.1,0 -2.1,-0.3 -2.8,-1 -0.6,-0.6 -1,-1.6 -1,-2.8 0,-2.2 1.5,-3.9 4,-3.9 0.9,0 1.5,0.2 1.9,0.3 l -0.2,0.8 c -0.4,-0.2 -0.9,-0.3 -1.6,-0.3 -1.8,0 -3,1.1 -3,3 0,1.9 1.1,3 2.9,3 0.6,0 1.1,-0.1 1.3,-0.2 v -2.2 h -1.5 V 29 h 2.4 v 3.7 z"
   id="path9"
   inkscape:connector-curvature="0"
   style="fill:#ffffff" />
		<path
   d="m 374.8,30.5 c 0,1.3 0.9,1.9 1.8,1.9 0.7,0 1.1,-0.1 1.5,-0.3 l 0.2,0.7 c -0.3,0.2 -0.9,0.3 -1.8,0.3 -1.6,0 -2.6,-1.1 -2.6,-2.7 0,-1.6 0.9,-2.9 2.5,-2.9 1.7,0 2.2,1.5 2.2,2.5 0,0.2 0,0.4 0,0.5 z m 2.9,-0.7 c 0,-0.6 -0.3,-1.6 -1.3,-1.6 -1,0 -1.4,0.9 -1.5,1.6 z"
   id="path11"
   inkscape:connector-curvature="0"
   style="fill:#ffffff" />
		<path
   d="m 381,26.1 v 1.5 h 1.4 v 0.7 H 381 v 2.9 c 0,0.7 0.2,1 0.7,1 0.3,0 0.4,0 0.6,-0.1 v 0.7 c -0.2,0.1 -0.5,0.1 -0.9,0.1 -0.5,0 -0.8,-0.1 -1,-0.4 -0.3,-0.3 -0.4,-0.8 -0.4,-1.4 v -2.9 h -0.8 v -0.7 h 0.8 v -1.3 z"
   id="path13"
   inkscape:connector-curvature="0"
   style="fill:#ffffff" />
		<path
   d="m 386.9,26.1 c 0,0.3 -0.2,0.6 -0.6,0.6 -0.3,0 -0.6,-0.3 -0.6,-0.6 0,-0.3 0.3,-0.6 0.6,-0.6 0.3,0 0.6,0.3 0.6,0.6 z m -1.1,6.9 v -5.4 h 1 V 33 Z"
   id="path15"
   inkscape:connector-curvature="0"
   style="fill:#ffffff" />
		<path
   d="m 389.5,26.1 v 1.5 h 1.4 v 0.7 h -1.4 v 2.9 c 0,0.7 0.2,1 0.7,1 0.3,0 0.4,0 0.6,-0.1 v 0.7 c -0.2,0.1 -0.5,0.1 -0.9,0.1 -0.5,0 -0.8,-0.1 -1,-0.4 -0.3,-0.3 -0.4,-0.8 -0.4,-1.4 v -2.9 h -0.8 v -0.7 h 0.8 v -1.3 z"
   id="path17"
   inkscape:connector-curvature="0"
   style="fill:#ffffff" />
		<path
   d="m 399.1,30.3 c 0,2 -1.4,2.9 -2.7,2.9 -1.4,0 -2.6,-1.1 -2.6,-2.8 0,-1.8 1.2,-2.9 2.6,-2.9 1.7,0 2.7,1.1 2.7,2.8 z m -4.2,0 c 0,1.2 0.7,2.1 1.6,2.1 0.9,0 1.6,-0.9 1.6,-2.1 0,-0.9 -0.5,-2.1 -1.6,-2.1 -1.1,0 -1.6,1.1 -1.6,2.1 z"
   id="path19"
   inkscape:connector-curvature="0"
   style="fill:#ffffff" />
		<path
   d="m 400.3,29.1 c 0,-0.6 0,-1 0,-1.5 h 0.9 l 0.1,0.9 v 0 c 0.3,-0.5 0.9,-1 1.8,-1 0.7,0 1.9,0.4 1.9,2.3 V 33 h -1 v -3.1 c 0,-0.9 -0.3,-1.6 -1.2,-1.6 -0.6,0 -1.1,0.5 -1.3,1 0,0.1 -0.1,0.3 -0.1,0.5 V 33 h -1 v -3.9 z"
   id="path21"
   inkscape:connector-curvature="0"
   style="fill:#ffffff" />
		<path
   d="m 369.3,49.2 -2.7,-10.9 h 1.5 l 1.3,5.5 c 0.3,1.4 0.6,2.7 0.8,3.8 v 0 c 0.2,-1.1 0.5,-2.4 0.9,-3.8 l 1.4,-5.5 h 1.5 l 1.3,5.5 c 0.3,1.3 0.6,2.6 0.8,3.7 v 0 c 0.2,-1.2 0.5,-2.4 0.9,-3.8 l 1.4,-5.5 h 1.4 l -3.1,10.9 h -1.5 l -1.4,-5.7 c -0.3,-1.4 -0.6,-2.5 -0.7,-3.6 v 0 c -0.2,1.1 -0.4,2.1 -0.8,3.6 l -1.5,5.7 h -1.5 z"
   id="path23"
   inkscape:connector-curvature="0"
   style="fill:#ffffff" />
		<path
   d="m 382.3,39.1 c 0,0.5 -0.3,0.9 -0.9,0.9 -0.5,0 -0.9,-0.4 -0.9,-0.9 0,-0.5 0.4,-0.9 0.9,-0.9 0.6,0.1 0.9,0.4 0.9,0.9 z m -1.6,10.1 v -7.8 h 1.4 v 7.8 z"
   id="path25"
   inkscape:connector-curvature="0"
   style="fill:#ffffff" />
		<path
   d="m 383.9,43.5 c 0,-0.8 0,-1.5 -0.1,-2.1 h 1.3 l 0.1,1.3 v 0 c 0.4,-0.7 1.3,-1.5 2.6,-1.5 1.1,0 2.7,0.6 2.7,3.3 v 4.7 h -1.4 v -4.5 c 0,-1.3 -0.5,-2.3 -1.8,-2.3 -0.9,0 -1.7,0.7 -1.9,1.5 -0.1,0.2 -0.1,0.4 -0.1,0.7 v 4.7 h -1.4 z"
   id="path27"
   inkscape:connector-curvature="0"
   style="fill:#ffffff" />
		<path
   d="m 399.4,37.7 v 9.5 c 0,0.7 0,1.5 0.1,2 h -1.3 l -0.1,-1.4 v 0 c -0.4,0.9 -1.4,1.5 -2.6,1.5 -1.9,0 -3.3,-1.6 -3.3,-4 0,-2.6 1.6,-4.2 3.5,-4.2 1.2,0 2,0.6 2.3,1.2 v 0 -4.7 h 1.4 z m -1.4,6.8 c 0,-0.2 0,-0.4 -0.1,-0.6 -0.2,-0.9 -1,-1.6 -2,-1.6 -1.5,0 -2.3,1.3 -2.3,3 0,1.6 0.8,2.9 2.3,2.9 0.9,0 1.8,-0.6 2.1,-1.7 0,-0.2 0.1,-0.4 0.1,-0.6 v -1.4 z"
   id="path29"
   inkscape:connector-curvature="0"
   style="fill:#ffffff" />
		<path
   d="m 408.3,45.2 c 0,2.9 -2,4.2 -3.9,4.2 -2.1,0 -3.7,-1.6 -3.7,-4 0,-2.6 1.7,-4.2 3.9,-4.2 2.2,0 3.7,1.6 3.7,4 z m -6.1,0.1 c 0,1.7 1,3 2.4,3 1.3,0 2.4,-1.3 2.4,-3 0,-1.3 -0.7,-3 -2.3,-3 -1.8,-0.1 -2.5,1.5 -2.5,3 z"
   id="path31"
   inkscape:connector-curvature="0"
   style="fill:#ffffff" />
		<path
   d="m 410.1,41.3 1,4 c 0.2,0.9 0.4,1.7 0.6,2.5 v 0 c 0.2,-0.8 0.4,-1.6 0.7,-2.5 l 1.3,-4 h 1.2 l 1.2,3.9 c 0.3,0.9 0.5,1.8 0.7,2.6 v 0 c 0.1,-0.8 0.3,-1.6 0.6,-2.5 l 1.1,-3.9 h 1.4 l -2.5,7.8 h -1.3 l -1.2,-3.7 c -0.3,-0.9 -0.5,-1.6 -0.7,-2.6 v 0 c -0.2,0.9 -0.4,1.7 -0.7,2.6 l -1.3,3.7 H 411 l -2.3,-7.8 h 1.4 z"
   id="path33"
   inkscape:connector-curvature="0"
   style="fill:#ffffff" />
		<path
   d="m 421,47.7 c 0.4,0.3 1.2,0.6 1.9,0.6 1,0 1.5,-0.5 1.5,-1.2 0,-0.7 -0.4,-1.1 -1.4,-1.4 -1.4,-0.5 -2.1,-1.3 -2.1,-2.2 0,-1.3 1,-2.3 2.7,-2.3 0.8,0 1.5,0.2 1.9,0.5 l -0.4,1 c -0.3,-0.2 -0.9,-0.5 -1.6,-0.5 -0.8,0 -1.3,0.5 -1.3,1.1 0,0.6 0.5,0.9 1.5,1.3 1.3,0.5 2,1.2 2,2.4 0,1.4 -1.1,2.3 -2.9,2.3 -0.9,0 -1.6,-0.2 -2.2,-0.5 z"
   id="path35"
   inkscape:connector-curvature="0"
   style="fill:#ffffff" />
		
		
	</g>
</g>
</svg>